<svg xmlns="http://www.w3.org/2000/svg" width="16" height="16" viewBox="0 0 16 16" fill="none">
    <g clip-path="url(#clip0_12415_691)">
        <path d="M14 4.00001H10.6667V2.88668C10.6511 2.45989 10.4668 2.05672 10.1544 1.76554C9.842 1.47436 9.42687 1.31894 9.00004 1.33335H7.00004C6.57321 1.31894 6.15808 1.47436 5.84566 1.76554C5.53324 2.05672 5.34901 2.45989 5.33337 2.88668V4.00001H2.00004C1.82323 4.00001 1.65366 4.07025 1.52864 4.19528C1.40361 4.3203 1.33337 4.48987 1.33337 4.66668C1.33337 4.84349 1.40361 5.01306 1.52864 5.13808C1.65366 5.26311 1.82323 5.33335 2.00004 5.33335H2.66671V12.6667C2.66671 13.1971 2.87742 13.7058 3.25249 14.0809C3.62757 14.456 4.13627 14.6667 4.66671 14.6667H11.3334C11.8638 14.6667 12.3725 14.456 12.7476 14.0809C13.1227 13.7058 13.3334 13.1971 13.3334 12.6667V5.33335H14C14.1769 5.33335 14.3464 5.26311 14.4714 5.13808C14.5965 5.01306 14.6667 4.84349 14.6667 4.66668C14.6667 4.48987 14.5965 4.3203 14.4714 4.19528C14.3464 4.07025 14.1769 4.00001 14 4.00001ZM6.66671 2.88668C6.66671 2.78001 6.80671 2.66668 7.00004 2.66668H9.00004C9.19337 2.66668 9.33337 2.78001 9.33337 2.88668V4.00001H6.66671V2.88668ZM12 12.6667C12 12.8435 11.9298 13.0131 11.8048 13.1381C11.6798 13.2631 11.5102 13.3333 11.3334 13.3333H4.66671C4.4899 13.3333 4.32033 13.2631 4.1953 13.1381C4.07028 13.0131 4.00004 12.8435 4.00004 12.6667V5.33335H12V12.6667Z" fill="white"/>
    </g>
    <defs>
        <clipPath id="clip0_12415_691">
            <rect width="16" height="16" fill="white"/>
        </clipPath>
    </defs>
</svg>